# xmcd CD database file
#
# Track frame offsets:
#	150
#	21375
#	36810
#	65125
#	95827
#	107437
#	127490
#	156032
#	170147
#	181347
#	196215
#	217487
#	242647
#
# Disc length: 3365 seconds
#
# Revision: 3
# Processed by: cddbd v1.5.1PL0 Copyright (c) Steve Scherf et al.
# Submitted via: CDex 1.51
#
DISCID=ca0d230d
DTITLE=Gordon Haskell - All my life
DYEAR=2002
DGENRE=Blues
TTITLE0=Hambledon Hill
TTITLE1=Breathing In
TTITLE2=Go Tell Sarah
TTITLE3=I Don't Remember It
TTITLE4=Today Is All We Got
TTITLE5=Mumbo Jumbo
TTITLE6=All My Life
TTITLE7=Nothing In This World
TTITLE8=One Love Will Do
TTITLE9=My Love Deserves A Medal
TTITLE10=The Right Time
TTITLE11=Chilli Chilli
TTITLE12=Please Don't Try To Talk To Me
EXTD=YEAR: 2002
EXTT0=
EXTT1=
EXTT2=
EXTT3=
EXTT4=
EXTT5=
EXTT6=
EXTT7=
EXTT8=
EXTT9=
EXTT10=
EXTT11=
EXTT12=
PLAYORDER=
